<svg width="100%" viewBox="0 0 680 260" xmlns="http://www.w3.org/2000/svg">

  <g transform="translate(148, 28)">
    <rect x="-10" y="0" width="20" height="90" rx="4" fill="#ffffff"/>
    <rect x="-12" y="-14" width="24" height="18" rx="5" fill="#cccccc"/>
    <rect x="10" y="-10" width="4" height="50" rx="2" fill="#aaaaaa"/>
    <rect x="-10" y="90" width="20" height="18" rx="2" fill="#cccccc"/>
    <path d="M-8,108 L8,108 L4,140 L0,155 L-4,140 Z" fill="#dddddd"/>
    <line x1="0" y1="118" x2="0" y2="152" stroke="#999" stroke-width="1.5"/>
    <circle cx="0" cy="155" r="3" fill="#ffffff"/>
    <path d="M0,158 Q18,178 10,200 Q2,218 20,230" fill="none" stroke="#ffffff" stroke-width="2.5" stroke-linecap="round" stroke-dasharray="4 3"/>
    <circle cx="20" cy="230" r="3" fill="#ffffff"/>
    <circle cx="15" cy="218" r="2" fill="#ffffff" opacity="0.4"/>
  </g>

  <text x="178" y="136" font-size="62" font-weight="500" fill="#ffffff"
        font-family="sans-serif" letter-spacing="-1">nk</text>
  <text x="268" y="136" font-size="62" font-weight="400" fill="#aaaaaa"
        font-family="sans-serif" letter-spacing="-1">Sync</text>
  <text x="220" y="173" font-size="12" fill="#666"
        font-family="sans-serif" letter-spacing="3.5">LEARN TOGETHER · IN REAL TIME</text>
  <line x1="148" y1="182" x2="530" y2="182" stroke="#ffffff" stroke-width="1" opacity="0.2"/>

</svg>
